<svg t="1663579733660" class="icon" viewBox="0 0 1024 1024" version="1.1" xmlns="http://www.w3.org/2000/svg" p-id="9538" width="200" height="200"><path d="M863.936 448.096c0-158.784-129.184-288-288-287.968l0-0.128c-8.8-0.032-15.936-7.2-15.936-16s7.136-16 16-16c0.32 0 0.576 0.128 0.8 0.192 176.256 0.416 318.944 143.264 319.136 319.552 0 0.096 0.064 0.16 0.064 0.256 0 8.832-7.2 15.968-16 15.968s-15.936-7.104-16-15.872l-0.064 0zM291.872 28.096c-18.336-18.368-42.912-28.096-67.904-28.096-12.352 0-24.8 2.368-36.672 7.296-35.904 14.848-59.296 49.856-59.296 88.704l-0.032 440.224-99.84 99.904c-37.504 37.44-37.504 98.24 0 135.744l224 224c18.752 18.752 43.296 28.128 67.872 28.128s49.12-9.376 67.872-28.128l99.872-99.872 440.192 0c38.88 0 73.888-23.36 88.672-59.264 14.88-35.872 6.688-77.184-20.8-104.64l-703.936-704zM442.496 850.752l-99.872 99.872c-8.16 8.128-17.696 9.376-22.624 9.376s-14.464-1.248-22.624-9.376l-224-224c-8.16-8.192-9.376-17.696-9.376-22.624s1.216-14.496 9.376-22.624l99.84-99.872c0.288-0.32 0.384-0.672 0.672-0.992l269.6 269.632c-0.288 0.224-0.704 0.288-0.992 0.608zM487.744 832c-4.96 0-9.568 1.76-14.304 2.816l-284.32-284.32c1.088-4.736 2.848-9.344 2.848-14.272l0.032-385.472 681.184 681.248-385.44 0zM957.504 812.256c-4.928 12-16.576 19.744-29.568 19.744l-9.504 0-726.432-726.496 0-9.504c0-12.992 7.744-24.608 19.744-29.568 3.936-1.632 8.032-2.432 12.224-2.432 8.576 0 16.608 3.328 22.624 9.344l703.968 704.032c9.184 9.184 11.936 22.88 6.944 34.88zM575.936 64c-17.632-0.032-31.936-14.368-31.936-32 0-17.696 14.304-32 32-32 0.32 0 0.576 0.128 0.8 0.16 246.944 0.448 446.944 200.608 447.136 447.584 0 0.096 0.064 0.16 0.064 0.256 0 17.696-14.304 32-32 32-17.632 0-31.936-14.272-32-31.872l-0.064 0c0-211.744-172.256-384-384-384l0-0.128z" p-id="9539"></path></svg>